<svg xmlns="http://www.w3.org/2000/svg" width="380" height="340" viewBox="0 0 380 340" role="img" aria-labelledby="title desc">
<title id="title">De una petición a un resultado</title><desc id="desc">Un ejemplo ilustrado: conversar, decidir y avanzar. Hyperion hace visible el proceso.</desc>
<defs><linearGradient id="bg" x2="1" y2="1"><stop stop-color="#24333c"/><stop offset="1" stop-color="#172127"/></linearGradient></defs>
<rect x="6" y="6" width="368" height="328" rx="32" fill="url(#bg)"/>
<g fill="none" stroke="#86d0b1" stroke-width="3"><path d="M190 48v32m0 58v28m0 40v27m0 58v13"/></g>
<circle cx="190" cy="42" r="8" fill="#86d0b1"/>
<rect x="59" y="80" width="262" height="58" rx="14" fill="#2c3c46" stroke="#61737d"/>
<path d="m81 110 6 6 12-14" fill="none" stroke="#86d0b1" stroke-width="2.5" stroke-linecap="round"/>
<text x="113" y="115" fill="#f4f1e8" font-family="system-ui,sans-serif" font-size="16">Tu petición</text>
<path d="m190 161 25 25-25 25-25-25z" fill="#413a27" stroke="#e3c786" stroke-width="2"/>
<path d="m183 179 14 14m0-14-14 14" stroke="#e3c786" stroke-width="2"/>
<text x="230" y="191" fill="#e3c786" font-family="system-ui,sans-serif" font-size="13">Tu decisión</text>
<rect x="59" y="234" width="262" height="58" rx="14" fill="#2c3c46" stroke="#86b7df"/>
<path d="m83 257 12 7-12 7z" fill="none" stroke="#86b7df" stroke-width="2" stroke-linejoin="round"/>
<text x="113" y="269" fill="#f4f1e8" font-family="system-ui,sans-serif" font-size="16">El siguiente paso</text>
<circle cx="190" cy="308" r="7" fill="none" stroke="#e79d94" stroke-width="3"/>
</svg>
